<svg width="192" height="192" viewBox="0 0 192 192" fill="none" xmlns="http://www.w3.org/2000/svg">
<rect width="192" height="192" fill="white"/>
<rect width="192" height="192" fill="#2D333B"/>
<g filter="url(#filter0_d)">
<circle cx="96" cy="96" r="78" stroke="#0EE9B4" stroke-width="4"/>
</g>
<g filter="url(#filter1_d)">
<path d="M100.172 113.5V115.5H102.062L102.169 113.613L100.172 113.5ZM91.7812 113.5L89.7844 113.613L89.8908 115.5H91.7812V113.5ZM88.9219 62.7812V60.7812H86.8059L86.925 62.8938L88.9219 62.7812ZM103.031 62.7812L105.028 62.8938L105.147 60.7812H103.031V62.7812ZM101.578 126.25L99.76 125.417L99.7518 125.435L99.744 125.453L101.578 126.25ZM98.3438 129.438L97.5745 127.591L97.5604 127.597L97.5463 127.603L98.3438 129.438ZM93.6562 129.438L92.8588 131.272L92.8729 131.278L92.887 131.284L93.6562 129.438ZM91.7344 128.172L90.2803 129.545L90.3196 129.587L90.3611 129.626L91.7344 128.172ZM90.4688 126.25L88.6226 127.019L88.6285 127.033L88.6346 127.047L90.4688 126.25ZM90.4688 121.562L92.3029 122.36L92.309 122.346L92.3149 122.332L90.4688 121.562ZM93.6562 118.328L94.4537 120.162L94.4717 120.154L94.4896 120.146L93.6562 118.328ZM98.3438 118.328L97.4808 120.132L97.5271 120.155L97.5745 120.174L98.3438 118.328ZM100.266 119.641L98.8116 121.014L98.8508 121.055L98.8924 121.095L100.266 119.641ZM101.578 121.562L99.732 122.332L99.7517 122.379L99.7739 122.425L101.578 121.562ZM100.172 111.5H91.7812V115.5H100.172V111.5ZM93.7781 113.387L90.9187 62.6687L86.925 62.8938L89.7844 113.613L93.7781 113.387ZM88.9219 64.7812H103.031V60.7812H88.9219V64.7812ZM101.034 62.6687L98.175 113.387L102.169 113.613L105.028 62.8938L101.034 62.6687ZM100.094 123.859C100.094 124.422 99.9811 124.934 99.76 125.417L103.396 127.083C103.863 126.066 104.094 124.984 104.094 123.859H100.094ZM99.744 125.453C99.5331 125.938 99.2392 126.37 98.8514 126.758L101.68 129.586C102.417 128.849 102.998 128 103.412 127.047L99.744 125.453ZM98.8514 126.758C98.5195 127.09 98.1032 127.371 97.5745 127.591L99.113 131.284C100.084 130.879 100.949 130.317 101.68 129.586L98.8514 126.758ZM97.5463 127.603C97.0884 127.802 96.5953 127.906 96.0469 127.906V131.906C97.1235 131.906 98.1616 131.698 99.1412 131.272L97.5463 127.603ZM96.0469 127.906C95.4568 127.906 94.9224 127.798 94.4255 127.591L92.887 131.284C93.8901 131.702 94.9494 131.906 96.0469 131.906V127.906ZM94.4537 127.603C93.9446 127.382 93.4994 127.088 93.1076 126.718L90.3611 129.626C91.0943 130.318 91.9304 130.868 92.8588 131.272L94.4537 127.603ZM93.1884 126.799C92.8183 126.407 92.5242 125.962 92.3029 125.453L88.6346 127.047C89.0383 127.976 89.5879 128.812 90.2803 129.545L93.1884 126.799ZM92.3149 125.481C92.1079 124.984 92 124.449 92 123.859H88C88 124.957 88.2046 126.016 88.6226 127.019L92.3149 125.481ZM92 123.859C92 123.311 92.1038 122.818 92.3029 122.36L88.6346 120.765C88.2087 121.745 88 122.783 88 123.859H92ZM92.3149 122.332C92.5352 121.803 92.8166 121.387 93.1486 121.055L90.3202 118.226C89.5896 118.957 89.0273 119.822 88.6226 120.793L92.3149 122.332ZM93.1486 121.055C93.5364 120.667 93.9686 120.373 94.4537 120.162L92.8588 116.494C91.9064 116.908 91.0574 117.489 90.3202 118.226L93.1486 121.055ZM94.4896 120.146C94.9721 119.925 95.484 119.812 96.0469 119.812V115.812C94.9222 115.812 93.8404 116.044 92.8229 116.51L94.4896 120.146ZM96.0469 119.812C96.5668 119.812 97.037 119.92 97.4808 120.132L99.2067 116.524C98.213 116.049 97.1519 115.812 96.0469 115.812V119.812ZM97.5745 120.174C98.0789 120.384 98.4825 120.665 98.8116 121.014L101.72 118.267C100.986 117.491 100.109 116.897 99.113 116.482L97.5745 120.174ZM98.8924 121.095C99.2408 121.424 99.5218 121.827 99.732 122.332L103.424 120.793C103.009 119.798 102.415 118.92 101.639 118.187L98.8924 121.095ZM99.7739 122.425C99.9861 122.869 100.094 123.339 100.094 123.859H104.094C104.094 122.754 103.858 121.693 103.382 120.7L99.7739 122.425Z" fill="#0EE9B4"/>
</g>
<defs>
<filter id="filter0_d" x="8" y="8" width="176" height="176" filterUnits="userSpaceOnUse" color-interpolation-filters="sRGB">
<feFlood flood-opacity="0" result="BackgroundImageFix"/>
<feColorMatrix in="SourceAlpha" type="matrix" values="0 0 0 0 0 0 0 0 0 0 0 0 0 0 0 0 0 0 127 0"/>
<feOffset/>
<feGaussianBlur stdDeviation="4"/>
<feColorMatrix type="matrix" values="0 0 0 0 0.055796 0 0 0 0 0.912664 0 0 0 0 0.707016 0 0 0 0.6 0"/>
<feBlend mode="normal" in2="BackgroundImageFix" result="effect1_dropShadow"/>
<feBlend mode="normal" in="SourceGraphic" in2="effect1_dropShadow" result="shape"/>
</filter>
<filter id="filter1_d" x="78.8059" y="52.7812" width="34.3412" height="87.125" filterUnits="userSpaceOnUse" color-interpolation-filters="sRGB">
<feFlood flood-opacity="0" result="BackgroundImageFix"/>
<feColorMatrix in="SourceAlpha" type="matrix" values="0 0 0 0 0 0 0 0 0 0 0 0 0 0 0 0 0 0 127 0"/>
<feOffset/>
<feGaussianBlur stdDeviation="4"/>
<feColorMatrix type="matrix" values="0 0 0 0 0.055796 0 0 0 0 0.912664 0 0 0 0 0.707016 0 0 0 0.6 0"/>
<feBlend mode="normal" in2="BackgroundImageFix" result="effect1_dropShadow"/>
<feBlend mode="normal" in="SourceGraphic" in2="effect1_dropShadow" result="shape"/>
</filter>
</defs>
</svg>
