<svg width="352" height="640" viewBox="0 0 352 640" fill="none" xmlns="http://www.w3.org/2000/svg">
<rect y="594" width="352" height="46" fill="#272D34"/>
<path d="M72.892 613.128H75.304C75.736 613.128 76.132 613.168 76.492 613.248C76.852 613.328 77.156 613.46 77.404 613.644C77.66 613.82 77.856 614.056 77.992 614.352C78.136 614.648 78.208 615.012 78.208 615.444C78.208 615.86 78.136 616.22 77.992 616.524C77.856 616.828 77.66 617.08 77.404 617.28C77.148 617.48 76.84 617.632 76.48 617.736C76.128 617.832 75.736 617.88 75.304 617.88H73.888V621H72.892V613.128ZM75.172 617.064C75.868 617.064 76.38 616.936 76.708 616.68C77.044 616.416 77.212 616.004 77.212 615.444C77.212 614.876 77.04 614.484 76.696 614.268C76.36 614.044 75.852 613.932 75.172 613.932H73.888V617.064H75.172ZM79.5833 618.096C79.5833 617.608 79.6593 617.176 79.8113 616.8C79.9713 616.416 80.1833 616.092 80.4473 615.828C80.7113 615.564 81.0153 615.364 81.3593 615.228C81.7113 615.092 82.0793 615.024 82.4633 615.024C82.8473 615.024 83.2113 615.092 83.5553 615.228C83.9073 615.364 84.2153 615.564 84.4793 615.828C84.7433 616.092 84.9513 616.416 85.1033 616.8C85.2633 617.176 85.3433 617.608 85.3433 618.096C85.3433 618.576 85.2633 619.008 85.1033 619.392C84.9513 619.768 84.7433 620.088 84.4793 620.352C84.2153 620.608 83.9073 620.804 83.5553 620.94C83.2113 621.076 82.8473 621.144 82.4633 621.144C82.0793 621.144 81.7113 621.076 81.3593 620.94C81.0153 620.804 80.7113 620.608 80.4473 620.352C80.1833 620.088 79.9713 619.768 79.8113 619.392C79.6593 619.008 79.5833 618.576 79.5833 618.096ZM80.6033 618.096C80.6033 618.432 80.6473 618.736 80.7353 619.008C80.8233 619.28 80.9473 619.516 81.1073 619.716C81.2753 619.908 81.4713 620.06 81.6953 620.172C81.9273 620.276 82.1833 620.328 82.4633 620.328C82.7433 620.328 82.9953 620.276 83.2193 620.172C83.4513 620.06 83.6473 619.908 83.8073 619.716C83.9753 619.516 84.1033 619.28 84.1913 619.008C84.2793 618.736 84.3233 618.432 84.3233 618.096C84.3233 617.76 84.2793 617.456 84.1913 617.184C84.1033 616.904 83.9753 616.664 83.8073 616.464C83.6473 616.264 83.4513 616.112 83.2193 616.008C82.9953 615.896 82.7433 615.84 82.4633 615.84C82.1833 615.84 81.9273 615.896 81.6953 616.008C81.4713 616.112 81.2753 616.264 81.1073 616.464C80.9473 616.664 80.8233 616.904 80.7353 617.184C80.6473 617.456 80.6033 617.76 80.6033 618.096ZM86.7786 615.168H87.5466L87.6306 615.936H87.6666C87.8106 615.664 87.9786 615.444 88.1706 615.276C88.3706 615.108 88.6386 615.024 88.9746 615.024C89.5666 615.024 89.9346 615.36 90.0786 616.032C90.2546 615.728 90.4466 615.484 90.6546 615.3C90.8626 615.116 91.1306 615.024 91.4586 615.024C91.8666 615.024 92.1786 615.18 92.3946 615.492C92.6186 615.796 92.7306 616.24 92.7306 616.824V621H91.7826V616.908C91.7826 616.22 91.5706 615.876 91.1466 615.876C90.9386 615.876 90.7586 615.952 90.6066 616.104C90.4546 616.248 90.3026 616.472 90.1506 616.776V621H89.3586V616.908C89.3586 616.22 89.1386 615.876 88.6986 615.876C88.4906 615.876 88.3146 615.952 88.1706 616.104C88.0266 616.248 87.8786 616.472 87.7266 616.776V621H86.7786V615.168ZM93.9739 618.096C93.9739 617.608 94.0499 617.176 94.2019 616.8C94.3619 616.416 94.5739 616.092 94.8379 615.828C95.1019 615.564 95.4059 615.364 95.7499 615.228C96.1019 615.092 96.4699 615.024 96.8539 615.024C97.2379 615.024 97.6019 615.092 97.9459 615.228C98.2979 615.364 98.6059 615.564 98.8699 615.828C99.1339 616.092 99.3419 616.416 99.4939 616.8C99.6539 617.176 99.7339 617.608 99.7339 618.096C99.7339 618.576 99.6539 619.008 99.4939 619.392C99.3419 619.768 99.1339 620.088 98.8699 620.352C98.6059 620.608 98.2979 620.804 97.9459 620.94C97.6019 621.076 97.2379 621.144 96.8539 621.144C96.4699 621.144 96.1019 621.076 95.7499 620.94C95.4059 620.804 95.1019 620.608 94.8379 620.352C94.5739 620.088 94.3619 619.768 94.2019 619.392C94.0499 619.008 93.9739 618.576 93.9739 618.096ZM94.9939 618.096C94.9939 618.432 95.0379 618.736 95.1259 619.008C95.2139 619.28 95.3379 619.516 95.4979 619.716C95.6659 619.908 95.8619 620.06 96.0859 620.172C96.3179 620.276 96.5739 620.328 96.8539 620.328C97.1339 620.328 97.3859 620.276 97.6099 620.172C97.8419 620.06 98.0379 619.908 98.1979 619.716C98.3659 619.516 98.4939 619.28 98.5819 619.008C98.6699 618.736 98.7139 618.432 98.7139 618.096C98.7139 617.76 98.6699 617.456 98.5819 617.184C98.4939 616.904 98.3659 616.664 98.1979 616.464C98.0379 616.264 97.8419 616.112 97.6099 616.008C97.3859 615.896 97.1339 615.84 96.8539 615.84C96.5739 615.84 96.3179 615.896 96.0859 616.008C95.8619 616.112 95.6659 616.264 95.4979 616.464C95.3379 616.664 95.2139 616.904 95.1259 617.184C95.0379 617.456 94.9939 617.76 94.9939 618.096ZM101.169 618.096C101.169 617.624 101.241 617.2 101.385 616.824C101.537 616.44 101.733 616.116 101.973 615.852C102.221 615.588 102.505 615.384 102.825 615.24C103.145 615.096 103.477 615.024 103.821 615.024C104.181 615.024 104.497 615.092 104.769 615.228C105.041 615.364 105.313 615.548 105.585 615.78L105.549 614.7V612.456H106.533V621H105.717L105.633 620.232H105.597C105.357 620.48 105.069 620.696 104.733 620.88C104.405 621.056 104.061 621.144 103.701 621.144C103.317 621.144 102.969 621.076 102.657 620.94C102.353 620.804 102.089 620.608 101.865 620.352C101.641 620.088 101.469 619.768 101.349 619.392C101.229 619.016 101.169 618.584 101.169 618.096ZM102.189 618.084C102.189 618.788 102.337 619.336 102.633 619.728C102.937 620.12 103.361 620.316 103.905 620.316C104.481 620.316 105.029 620.024 105.549 619.44V616.536C105.285 616.288 105.025 616.112 104.769 616.008C104.521 615.904 104.269 615.852 104.013 615.852C103.757 615.852 103.517 615.908 103.293 616.02C103.077 616.124 102.885 616.276 102.717 616.476C102.557 616.668 102.429 616.9 102.333 617.172C102.237 617.444 102.189 617.748 102.189 618.084ZM108.365 618.096C108.365 617.608 108.441 617.176 108.593 616.8C108.753 616.416 108.965 616.092 109.229 615.828C109.493 615.564 109.797 615.364 110.141 615.228C110.493 615.092 110.861 615.024 111.245 615.024C111.629 615.024 111.993 615.092 112.337 615.228C112.689 615.364 112.997 615.564 113.261 615.828C113.525 616.092 113.733 616.416 113.885 616.8C114.045 617.176 114.125 617.608 114.125 618.096C114.125 618.576 114.045 619.008 113.885 619.392C113.733 619.768 113.525 620.088 113.261 620.352C112.997 620.608 112.689 620.804 112.337 620.94C111.993 621.076 111.629 621.144 111.245 621.144C110.861 621.144 110.493 621.076 110.141 620.94C109.797 620.804 109.493 620.608 109.229 620.352C108.965 620.088 108.753 619.768 108.593 619.392C108.441 619.008 108.365 618.576 108.365 618.096ZM109.385 618.096C109.385 618.432 109.429 618.736 109.517 619.008C109.605 619.28 109.729 619.516 109.889 619.716C110.057 619.908 110.253 620.06 110.477 620.172C110.709 620.276 110.965 620.328 111.245 620.328C111.525 620.328 111.777 620.276 112.001 620.172C112.233 620.06 112.429 619.908 112.589 619.716C112.757 619.516 112.885 619.28 112.973 619.008C113.061 618.736 113.105 618.432 113.105 618.096C113.105 617.76 113.061 617.456 112.973 617.184C112.885 616.904 112.757 616.664 112.589 616.464C112.429 616.264 112.233 616.112 112.001 616.008C111.777 615.896 111.525 615.84 111.245 615.84C110.965 615.84 110.709 615.896 110.477 616.008C110.253 616.112 110.057 616.264 109.889 616.464C109.729 616.664 109.605 616.904 109.517 617.184C109.429 617.456 109.385 617.76 109.385 618.096ZM116.592 615.168H117.408L117.492 616.548H117.528C117.832 616.076 118.204 615.704 118.644 615.432C119.092 615.16 119.588 615.024 120.132 615.024C120.348 615.024 120.548 615.044 120.732 615.084C120.916 615.116 121.1 615.176 121.284 615.264L121.056 616.116C120.848 616.044 120.672 615.992 120.528 615.96C120.392 615.928 120.208 615.912 119.976 615.912C119.536 615.912 119.112 616.04 118.704 616.296C118.304 616.544 117.928 616.972 117.576 617.58V621H116.592V615.168ZM122.755 618.096C122.755 617.608 122.831 617.176 122.983 616.8C123.143 616.416 123.355 616.092 123.619 615.828C123.883 615.564 124.187 615.364 124.531 615.228C124.883 615.092 125.251 615.024 125.635 615.024C126.019 615.024 126.383 615.092 126.727 615.228C127.079 615.364 127.387 615.564 127.651 615.828C127.915 616.092 128.123 616.416 128.275 616.8C128.435 617.176 128.515 617.608 128.515 618.096C128.515 618.576 128.435 619.008 128.275 619.392C128.123 619.768 127.915 620.088 127.651 620.352C127.387 620.608 127.079 620.804 126.727 620.94C126.383 621.076 126.019 621.144 125.635 621.144C125.251 621.144 124.883 621.076 124.531 620.94C124.187 620.804 123.883 620.608 123.619 620.352C123.355 620.088 123.143 619.768 122.983 619.392C122.831 619.008 122.755 618.576 122.755 618.096ZM123.775 618.096C123.775 618.432 123.819 618.736 123.907 619.008C123.995 619.28 124.119 619.516 124.279 619.716C124.447 619.908 124.643 620.06 124.867 620.172C125.099 620.276 125.355 620.328 125.635 620.328C125.915 620.328 126.167 620.276 126.391 620.172C126.623 620.06 126.819 619.908 126.979 619.716C127.147 619.516 127.275 619.28 127.363 619.008C127.451 618.736 127.495 618.432 127.495 618.096C127.495 617.76 127.451 617.456 127.363 617.184C127.275 616.904 127.147 616.664 126.979 616.464C126.819 616.264 126.623 616.112 126.391 616.008C126.167 615.896 125.915 615.84 125.635 615.84C125.355 615.84 125.099 615.896 124.867 616.008C124.643 616.112 124.447 616.264 124.279 616.464C124.119 616.664 123.995 616.904 123.907 617.184C123.819 617.456 123.775 617.76 123.775 618.096ZM132.326 613.968H129.734V613.128H135.926V613.968H133.334V621H132.326V613.968ZM137.506 615.168H141.202V621H140.218V615.972H137.506V615.168ZM140.602 613.968C140.37 613.968 140.178 613.9 140.026 613.764C139.882 613.628 139.81 613.444 139.81 613.212C139.81 612.98 139.882 612.796 140.026 612.66C140.178 612.516 140.37 612.444 140.602 612.444C140.826 612.444 141.014 612.516 141.166 612.66C141.318 612.796 141.394 612.98 141.394 613.212C141.394 613.444 141.318 613.628 141.166 613.764C141.014 613.9 140.826 613.968 140.602 613.968ZM144.341 615.168H145.109L145.193 615.936H145.229C145.373 615.664 145.541 615.444 145.733 615.276C145.933 615.108 146.201 615.024 146.537 615.024C147.129 615.024 147.497 615.36 147.641 616.032C147.817 615.728 148.009 615.484 148.217 615.3C148.425 615.116 148.693 615.024 149.021 615.024C149.429 615.024 149.741 615.18 149.957 615.492C150.181 615.796 150.293 616.24 150.293 616.824V621H149.345V616.908C149.345 616.22 149.133 615.876 148.709 615.876C148.501 615.876 148.321 615.952 148.169 616.104C148.017 616.248 147.865 616.472 147.713 616.776V621H146.921V616.908C146.921 616.22 146.701 615.876 146.261 615.876C146.053 615.876 145.877 615.952 145.733 616.104C145.589 616.248 145.441 616.472 145.289 616.776V621H144.341V615.168ZM151.644 618.096C151.644 617.616 151.728 617.188 151.896 616.812C152.064 616.428 152.284 616.104 152.556 615.84C152.836 615.576 153.152 615.376 153.504 615.24C153.864 615.096 154.232 615.024 154.608 615.024C155.024 615.024 155.396 615.092 155.724 615.228C156.052 615.356 156.328 615.54 156.552 615.78C156.784 616.02 156.96 616.308 157.08 616.644C157.2 616.98 157.26 617.352 157.26 617.76C157.26 617.864 157.256 617.968 157.248 618.072C157.248 618.168 157.24 618.252 157.224 618.324H152.664C152.672 618.636 152.732 618.916 152.844 619.164C152.964 619.412 153.12 619.624 153.312 619.8C153.512 619.976 153.744 620.112 154.008 620.208C154.28 620.304 154.576 620.352 154.896 620.352C155.24 620.352 155.552 620.304 155.832 620.208C156.12 620.112 156.4 619.98 156.672 619.812L157.02 620.46C156.732 620.644 156.404 620.804 156.036 620.94C155.668 621.076 155.248 621.144 154.776 621.144C154.344 621.144 153.936 621.076 153.552 620.94C153.176 620.796 152.844 620.596 152.556 620.34C152.276 620.076 152.052 619.756 151.884 619.38C151.724 619.004 151.644 618.576 151.644 618.096ZM156.348 617.616C156.348 617.032 156.196 616.584 155.892 616.272C155.588 615.96 155.164 615.804 154.62 615.804C154.38 615.804 154.148 615.844 153.924 615.924C153.708 616.004 153.512 616.124 153.336 616.284C153.16 616.436 153.012 616.624 152.892 616.848C152.772 617.072 152.692 617.328 152.652 617.616H156.348ZM159.764 615.168H160.58L160.664 616.548H160.7C161.004 616.076 161.376 615.704 161.816 615.432C162.264 615.16 162.76 615.024 163.304 615.024C163.52 615.024 163.72 615.044 163.904 615.084C164.088 615.116 164.272 615.176 164.456 615.264L164.228 616.116C164.02 616.044 163.844 615.992 163.7 615.96C163.564 615.928 163.38 615.912 163.148 615.912C162.708 615.912 162.284 616.04 161.876 616.296C161.476 616.544 161.1 616.972 160.748 617.58V621H159.764V615.168ZM173.518 612.456H174.502V614.784L174.478 615.912C174.758 615.64 175.07 615.424 175.414 615.264C175.766 615.104 176.114 615.024 176.458 615.024C176.85 615.024 177.198 615.096 177.502 615.24C177.806 615.376 178.058 615.576 178.258 615.84C178.466 616.096 178.622 616.408 178.726 616.776C178.83 617.136 178.882 617.54 178.882 617.988C178.882 618.484 178.81 618.928 178.666 619.32C178.522 619.712 178.326 620.044 178.078 620.316C177.838 620.588 177.558 620.796 177.238 620.94C176.918 621.076 176.586 621.144 176.242 621.144C175.962 621.144 175.658 621.076 175.33 620.94C175.01 620.796 174.71 620.6 174.43 620.352H174.394L174.31 621H173.518V612.456ZM174.502 619.632C174.782 619.88 175.062 620.056 175.342 620.16C175.63 620.264 175.878 620.316 176.086 620.316C176.342 620.316 176.578 620.264 176.794 620.16C177.01 620.048 177.198 619.896 177.358 619.704C177.518 619.504 177.642 619.26 177.73 618.972C177.818 618.684 177.862 618.36 177.862 618C177.862 617.68 177.83 617.388 177.766 617.124C177.702 616.86 177.602 616.636 177.466 616.452C177.338 616.26 177.17 616.112 176.962 616.008C176.754 615.904 176.506 615.852 176.218 615.852C175.962 615.852 175.686 615.924 175.39 616.068C175.102 616.204 174.806 616.424 174.502 616.728V619.632ZM180.606 622.608C180.686 622.632 180.77 622.652 180.858 622.668C180.954 622.684 181.046 622.692 181.134 622.692C181.542 622.692 181.874 622.572 182.13 622.332C182.386 622.1 182.586 621.804 182.73 621.444L182.91 621.012L180.186 615.168H181.182L182.61 618.396C182.722 618.652 182.838 618.928 182.958 619.224C183.086 619.52 183.21 619.808 183.33 620.088H183.378C183.482 619.808 183.586 619.524 183.69 619.236C183.802 618.94 183.906 618.66 184.002 618.396L185.274 615.168H186.21L183.642 621.48C183.53 621.768 183.402 622.036 183.258 622.284C183.114 622.532 182.942 622.744 182.742 622.92C182.542 623.104 182.31 623.248 182.046 623.352C181.79 623.456 181.498 623.508 181.17 623.508C180.882 623.508 180.626 623.468 180.402 623.388L180.606 622.608ZM195.392 619.284C195.688 619.58 196.032 619.82 196.424 620.004C196.816 620.18 197.228 620.268 197.66 620.268C198.22 620.268 198.652 620.152 198.956 619.92C199.26 619.68 199.412 619.368 199.412 618.984C199.412 618.784 199.376 618.616 199.304 618.48C199.232 618.336 199.132 618.216 199.004 618.12C198.876 618.016 198.724 617.924 198.548 617.844C198.38 617.764 198.196 617.68 197.996 617.592L196.868 617.1C196.668 617.02 196.468 616.924 196.268 616.812C196.068 616.7 195.884 616.564 195.716 616.404C195.556 616.244 195.424 616.056 195.32 615.84C195.216 615.616 195.164 615.36 195.164 615.072C195.164 614.776 195.228 614.5 195.356 614.244C195.484 613.988 195.66 613.768 195.884 613.584C196.116 613.392 196.388 613.244 196.7 613.14C197.02 613.036 197.368 612.984 197.744 612.984C198.24 612.984 198.696 613.076 199.112 613.26C199.528 613.436 199.88 613.668 200.168 613.956L199.64 614.604C199.384 614.372 199.1 614.192 198.788 614.064C198.484 613.928 198.136 613.86 197.744 613.86C197.264 613.86 196.884 613.964 196.604 614.172C196.324 614.372 196.184 614.652 196.184 615.012C196.184 615.204 196.224 615.368 196.304 615.504C196.392 615.632 196.5 615.748 196.628 615.852C196.764 615.948 196.916 616.032 197.084 616.104C197.252 616.176 197.42 616.248 197.588 616.32L198.692 616.8C198.932 616.896 199.156 617.008 199.364 617.136C199.58 617.256 199.764 617.4 199.916 617.568C200.076 617.728 200.2 617.92 200.288 618.144C200.384 618.36 200.432 618.612 200.432 618.9C200.432 619.212 200.368 619.504 200.24 619.776C200.112 620.048 199.928 620.288 199.688 620.496C199.448 620.696 199.156 620.856 198.812 620.976C198.468 621.088 198.08 621.144 197.648 621.144C197.072 621.144 196.54 621.04 196.052 620.832C195.572 620.624 195.152 620.34 194.792 619.98L195.392 619.284ZM202.264 615.168H205.96V621H204.976V615.972H202.264V615.168ZM205.36 613.968C205.128 613.968 204.936 613.9 204.784 613.764C204.64 613.628 204.568 613.444 204.568 613.212C204.568 612.98 204.64 612.796 204.784 612.66C204.936 612.516 205.128 612.444 205.36 612.444C205.584 612.444 205.772 612.516 205.924 612.66C206.076 612.796 206.152 612.98 206.152 613.212C206.152 613.444 206.076 613.628 205.924 613.764C205.772 613.9 205.584 613.968 205.36 613.968ZM209.099 615.168H209.867L209.951 615.936H209.987C210.131 615.664 210.299 615.444 210.491 615.276C210.691 615.108 210.959 615.024 211.295 615.024C211.887 615.024 212.255 615.36 212.399 616.032C212.575 615.728 212.767 615.484 212.975 615.3C213.183 615.116 213.451 615.024 213.779 615.024C214.187 615.024 214.499 615.18 214.715 615.492C214.939 615.796 215.051 616.24 215.051 616.824V621H214.103V616.908C214.103 616.22 213.891 615.876 213.467 615.876C213.259 615.876 213.079 615.952 212.927 616.104C212.775 616.248 212.623 616.472 212.471 616.776V621H211.679V616.908C211.679 616.22 211.459 615.876 211.019 615.876C210.811 615.876 210.635 615.952 210.491 616.104C210.347 616.248 210.199 616.472 210.047 616.776V621H209.099V615.168ZM216.294 618.096C216.294 617.608 216.37 617.176 216.522 616.8C216.682 616.416 216.894 616.092 217.158 615.828C217.422 615.564 217.726 615.364 218.07 615.228C218.422 615.092 218.79 615.024 219.174 615.024C219.558 615.024 219.922 615.092 220.266 615.228C220.618 615.364 220.926 615.564 221.19 615.828C221.454 616.092 221.662 616.416 221.814 616.8C221.974 617.176 222.054 617.608 222.054 618.096C222.054 618.576 221.974 619.008 221.814 619.392C221.662 619.768 221.454 620.088 221.19 620.352C220.926 620.608 220.618 620.804 220.266 620.94C219.922 621.076 219.558 621.144 219.174 621.144C218.79 621.144 218.422 621.076 218.07 620.94C217.726 620.804 217.422 620.608 217.158 620.352C216.894 620.088 216.682 619.768 216.522 619.392C216.37 619.008 216.294 618.576 216.294 618.096ZM217.314 618.096C217.314 618.432 217.358 618.736 217.446 619.008C217.534 619.28 217.658 619.516 217.818 619.716C217.986 619.908 218.182 620.06 218.406 620.172C218.638 620.276 218.894 620.328 219.174 620.328C219.454 620.328 219.706 620.276 219.93 620.172C220.162 620.06 220.358 619.908 220.518 619.716C220.686 619.516 220.814 619.28 220.902 619.008C220.99 618.736 221.034 618.432 221.034 618.096C221.034 617.76 220.99 617.456 220.902 617.184C220.814 616.904 220.686 616.664 220.518 616.464C220.358 616.264 220.162 616.112 219.93 616.008C219.706 615.896 219.454 615.84 219.174 615.84C218.894 615.84 218.638 615.896 218.406 616.008C218.182 616.112 217.986 616.264 217.818 616.464C217.658 616.664 217.534 616.904 217.446 617.184C217.358 617.456 217.314 617.76 217.314 618.096ZM223.886 615.168H224.702L224.786 616.164H224.834C225.138 615.836 225.466 615.564 225.818 615.348C226.17 615.132 226.574 615.024 227.03 615.024C227.726 615.024 228.234 615.224 228.554 615.624C228.882 616.016 229.046 616.6 229.046 617.376V621H228.062V617.508C228.062 616.956 227.958 616.548 227.75 616.284C227.542 616.012 227.198 615.876 226.718 615.876C226.542 615.876 226.378 615.9 226.226 615.948C226.082 615.988 225.938 616.052 225.794 616.14C225.65 616.228 225.502 616.34 225.35 616.476C225.198 616.604 225.038 616.756 224.87 616.932V621H223.886V615.168ZM238.78 619.236C239.012 619.588 239.272 619.848 239.56 620.016C239.848 620.184 240.144 620.268 240.448 620.268C241.016 620.268 241.428 620.12 241.684 619.824C241.948 619.52 242.08 619.044 242.08 618.396V613.956H238.78V613.116H243.076V618.48C243.076 618.848 243.032 619.196 242.944 619.524C242.856 619.844 242.708 620.124 242.5 620.364C242.3 620.604 242.032 620.796 241.696 620.94C241.368 621.076 240.96 621.144 240.472 621.144C240.024 621.144 239.588 621.04 239.164 620.832C238.748 620.624 238.404 620.292 238.132 619.836L238.78 619.236ZM245.327 619.488C245.327 619.16 245.403 618.876 245.555 618.636C245.715 618.388 245.963 618.176 246.299 618C246.643 617.824 247.083 617.68 247.619 617.568C248.155 617.456 248.799 617.368 249.551 617.304C249.543 617.104 249.511 616.916 249.455 616.74C249.399 616.564 249.311 616.412 249.191 616.284C249.071 616.148 248.911 616.04 248.711 615.96C248.519 615.88 248.283 615.84 248.003 615.84C247.619 615.84 247.251 615.916 246.899 616.068C246.547 616.212 246.235 616.368 245.963 616.536L245.579 615.864C245.723 615.768 245.891 615.672 246.083 615.576C246.283 615.472 246.491 615.38 246.707 615.3C246.931 615.22 247.167 615.156 247.415 615.108C247.663 615.052 247.915 615.024 248.171 615.024C248.971 615.024 249.563 615.244 249.947 615.684C250.339 616.116 250.535 616.696 250.535 617.424V621H249.731L249.647 620.208H249.611C249.283 620.464 248.919 620.684 248.519 620.868C248.127 621.052 247.723 621.144 247.307 621.144C247.035 621.144 246.779 621.104 246.539 621.024C246.299 620.952 246.087 620.848 245.903 620.712C245.727 620.568 245.587 620.396 245.483 620.196C245.379 619.988 245.327 619.752 245.327 619.488ZM246.287 619.416C246.287 619.584 246.323 619.728 246.395 619.848C246.467 619.96 246.559 620.056 246.671 620.136C246.791 620.208 246.927 620.264 247.079 620.304C247.239 620.336 247.403 620.352 247.571 620.352C247.907 620.352 248.235 620.28 248.555 620.136C248.883 619.984 249.215 619.768 249.551 619.488V617.952C248.927 618 248.403 618.068 247.979 618.156C247.563 618.244 247.227 618.352 246.971 618.48C246.723 618.6 246.547 618.74 246.443 618.9C246.339 619.052 246.287 619.224 246.287 619.416ZM252.379 618.096C252.379 617.616 252.463 617.188 252.631 616.812C252.799 616.428 253.019 616.104 253.291 615.84C253.571 615.576 253.887 615.376 254.239 615.24C254.599 615.096 254.967 615.024 255.343 615.024C255.759 615.024 256.131 615.092 256.459 615.228C256.787 615.356 257.063 615.54 257.287 615.78C257.519 616.02 257.695 616.308 257.815 616.644C257.935 616.98 257.995 617.352 257.995 617.76C257.995 617.864 257.991 617.968 257.983 618.072C257.983 618.168 257.975 618.252 257.959 618.324H253.399C253.407 618.636 253.467 618.916 253.579 619.164C253.699 619.412 253.855 619.624 254.047 619.8C254.247 619.976 254.479 620.112 254.743 620.208C255.015 620.304 255.311 620.352 255.631 620.352C255.975 620.352 256.287 620.304 256.567 620.208C256.855 620.112 257.135 619.98 257.407 619.812L257.755 620.46C257.467 620.644 257.139 620.804 256.771 620.94C256.403 621.076 255.983 621.144 255.511 621.144C255.079 621.144 254.671 621.076 254.287 620.94C253.911 620.796 253.579 620.596 253.291 620.34C253.011 620.076 252.787 619.756 252.619 619.38C252.459 619.004 252.379 618.576 252.379 618.096ZM257.083 617.616C257.083 617.032 256.931 616.584 256.627 616.272C256.323 615.96 255.899 615.804 255.355 615.804C255.115 615.804 254.883 615.844 254.659 615.924C254.443 616.004 254.247 616.124 254.071 616.284C253.895 616.436 253.747 616.624 253.627 616.848C253.507 617.072 253.427 617.328 253.387 617.616H257.083ZM260.462 621.972C260.462 622.276 260.622 622.524 260.942 622.716C261.27 622.908 261.746 623.004 262.37 623.004C262.706 623.004 263.01 622.968 263.282 622.896C263.554 622.832 263.786 622.744 263.978 622.632C264.17 622.52 264.314 622.392 264.41 622.248C264.514 622.104 264.566 621.956 264.566 621.804C264.566 621.524 264.454 621.336 264.23 621.24C264.014 621.144 263.682 621.096 263.234 621.096H262.094C261.926 621.096 261.766 621.088 261.614 621.072C261.47 621.064 261.334 621.04 261.206 621C260.926 621.152 260.73 621.308 260.618 621.468C260.514 621.636 260.462 621.804 260.462 621.972ZM259.61 622.068C259.61 621.836 259.69 621.608 259.85 621.384C260.018 621.16 260.258 620.956 260.57 620.772V620.724C260.41 620.636 260.27 620.516 260.15 620.364C260.03 620.212 259.97 620.012 259.97 619.764C259.97 619.58 260.03 619.392 260.15 619.2C260.27 619 260.442 618.824 260.666 618.672V618.624C260.466 618.472 260.294 618.272 260.15 618.024C260.014 617.768 259.946 617.464 259.946 617.112C259.946 616.792 260.006 616.504 260.126 616.248C260.254 615.992 260.422 615.776 260.63 615.6C260.838 615.416 261.078 615.276 261.35 615.18C261.63 615.076 261.926 615.024 262.238 615.024C262.558 615.024 262.846 615.072 263.102 615.168H265.514V615.924H263.954C264.09 616.068 264.214 616.244 264.326 616.452C264.438 616.66 264.494 616.892 264.494 617.148C264.494 617.46 264.434 617.74 264.314 617.988C264.202 618.236 264.042 618.448 263.834 618.624C263.634 618.792 263.394 618.924 263.114 619.02C262.842 619.108 262.55 619.152 262.238 619.152C262.086 619.152 261.922 619.136 261.746 619.104C261.578 619.064 261.414 619.008 261.254 618.936C260.95 619.128 260.798 619.352 260.798 619.608C260.798 619.84 260.902 620.012 261.11 620.124C261.326 620.228 261.626 620.28 262.01 620.28H263.318C264.07 620.28 264.626 620.384 264.986 620.592C265.354 620.8 265.538 621.152 265.538 621.648C265.538 621.92 265.462 622.18 265.31 622.428C265.158 622.676 264.942 622.892 264.662 623.076C264.382 623.26 264.042 623.408 263.642 623.52C263.242 623.632 262.794 623.688 262.298 623.688C261.442 623.688 260.778 623.548 260.306 623.268C259.842 622.988 259.61 622.588 259.61 622.068ZM262.238 618.492C262.614 618.492 262.93 618.368 263.186 618.12C263.45 617.872 263.582 617.536 263.582 617.112C263.582 616.912 263.546 616.728 263.474 616.56C263.402 616.392 263.306 616.248 263.186 616.128C263.066 616.008 262.922 615.916 262.754 615.852C262.594 615.78 262.422 615.744 262.238 615.744C262.054 615.744 261.878 615.78 261.71 615.852C261.55 615.916 261.41 616.008 261.29 616.128C261.17 616.248 261.074 616.392 261.002 616.56C260.93 616.728 260.894 616.912 260.894 617.112C260.894 617.536 261.026 617.872 261.29 618.12C261.554 618.368 261.87 618.492 262.238 618.492ZM266.769 618.096C266.769 617.616 266.853 617.188 267.021 616.812C267.189 616.428 267.409 616.104 267.681 615.84C267.961 615.576 268.277 615.376 268.629 615.24C268.989 615.096 269.357 615.024 269.733 615.024C270.149 615.024 270.521 615.092 270.849 615.228C271.177 615.356 271.453 615.54 271.677 615.78C271.909 616.02 272.085 616.308 272.205 616.644C272.325 616.98 272.385 617.352 272.385 617.76C272.385 617.864 272.381 617.968 272.373 618.072C272.373 618.168 272.365 618.252 272.349 618.324H267.789C267.797 618.636 267.857 618.916 267.969 619.164C268.089 619.412 268.245 619.624 268.437 619.8C268.637 619.976 268.869 620.112 269.133 620.208C269.405 620.304 269.701 620.352 270.021 620.352C270.365 620.352 270.677 620.304 270.957 620.208C271.245 620.112 271.525 619.98 271.797 619.812L272.145 620.46C271.857 620.644 271.529 620.804 271.161 620.94C270.793 621.076 270.373 621.144 269.901 621.144C269.469 621.144 269.061 621.076 268.677 620.94C268.301 620.796 267.969 620.596 267.681 620.34C267.401 620.076 267.177 619.756 267.009 619.38C266.849 619.004 266.769 618.576 266.769 618.096ZM271.473 617.616C271.473 617.032 271.321 616.584 271.017 616.272C270.713 615.96 270.289 615.804 269.745 615.804C269.505 615.804 269.273 615.844 269.049 615.924C268.833 616.004 268.637 616.124 268.461 616.284C268.285 616.436 268.137 616.624 268.017 616.848C267.897 617.072 267.817 617.328 267.777 617.616H271.473ZM274.889 615.168H275.705L275.789 616.548H275.825C276.129 616.076 276.501 615.704 276.941 615.432C277.389 615.16 277.885 615.024 278.429 615.024C278.645 615.024 278.845 615.044 279.029 615.084C279.213 615.116 279.397 615.176 279.581 615.264L279.353 616.116C279.145 616.044 278.969 615.992 278.825 615.96C278.689 615.928 278.505 615.912 278.273 615.912C277.833 615.912 277.409 616.04 277.001 616.296C276.601 616.544 276.225 616.972 275.873 617.58V621H274.889V615.168Z" fill="#BEBEBE"/>
<path d="M71.668 622.466H165.212V623.066H71.668V622.466ZM193.988 622.466H280.337V623.066H193.988V622.466Z" fill="#BEBEBE"/>
<rect width="352" height="594" fill="#2D333B"/>
<path d="M256.68 389.975L256.27 389.689L256.68 389.975C257.917 388.198 259.305 386.836 260.971 385.915C262.634 384.996 264.603 384.5 267.026 384.5C269.556 384.5 272.187 385.49 274.181 387.138C276.174 388.785 277.494 391.053 277.494 393.6C277.494 395.314 277.034 396.581 276.358 397.568C275.677 398.562 274.76 399.296 273.808 399.914C273.341 400.216 272.874 400.486 272.422 400.747L272.392 400.764C271.937 401.027 271.492 401.284 271.107 401.547C270.365 402.052 269.665 402.693 269.665 403.639V404C269.665 404.552 269.217 405 268.665 405H264.135C263.583 405 263.135 404.552 263.135 404V403.388C263.135 399.913 265.681 398.487 267.911 397.237C267.949 397.216 267.986 397.195 268.024 397.174C268.961 396.648 269.782 396.173 270.362 395.635C270.967 395.074 271.341 394.415 271.341 393.54C271.341 392.375 270.597 391.464 269.684 390.871C268.767 390.275 267.597 389.938 266.54 389.938C265.23 389.938 264.229 390.244 263.347 390.832C262.484 391.407 261.761 392.235 260.977 393.217L261.368 393.529L260.977 393.217C260.639 393.641 260.024 393.717 259.592 393.39L256.896 391.345C256.468 391.021 256.373 390.417 256.68 389.975ZM262.571 411.671C262.571 409.56 264.289 407.841 266.4 407.841C268.511 407.841 270.23 409.559 270.23 411.671C270.23 413.782 268.511 415.5 266.4 415.5C264.289 415.5 262.571 413.782 262.571 411.671Z" stroke="#0EE9B4"/>
<path d="M190.669 398.105L190.677 398.109L190.684 398.113C192.462 399.111 192.457 401.677 190.686 402.66L190.686 402.66L190.68 402.663L167.974 415.693C166.251 416.644 164.113 415.406 164.113 413.419V386.581C164.113 384.585 166.258 383.359 167.968 384.303L190.669 398.105ZM176 368.5C193.401 368.5 207.5 382.599 207.5 400C207.5 417.401 193.401 431.5 176 431.5C158.599 431.5 144.5 417.401 144.5 400C144.5 382.599 158.599 368.5 176 368.5ZM176 373.694C161.466 373.694 149.694 385.466 149.694 400C149.694 414.534 161.466 426.306 176 426.306C190.534 426.306 202.306 414.534 202.306 400C202.306 385.466 190.534 373.694 176 373.694Z" stroke="#0EE9B4"/>
<path d="M72.5328 408.534C74.6005 410.348 77.2255 411.339 80 411.339C86.3333 411.339 91.2872 406.209 91.3383 400.098C91.3922 393.653 86.1342 388.608 79.8996 388.662C77.0368 388.686 74.3397 389.767 72.257 391.718L71.8798 392.071L72.2452 392.436L74.9387 395.13C74.9387 395.13 74.9387 395.13 74.9387 395.13C75.5992 395.79 75.1314 396.919 74.1974 396.919H65.5484C64.9694 396.919 64.5 396.45 64.5 395.871V387.222C64.5 386.288 65.6292 385.82 66.2897 386.481L68.5939 388.785L68.9395 389.13L69.2929 388.793C72.0697 386.139 75.8296 384.507 79.9715 384.5C88.5215 384.485 95.5001 391.45 95.5 400C95.4999 408.56 88.5604 415.5 80 415.5C76.0043 415.5 72.3628 413.989 69.614 411.506L69.614 411.506C69.4942 411.398 69.4914 411.216 69.6013 411.106L72.1601 408.547L71.8077 408.194L72.1601 408.547C72.2628 408.444 72.426 408.44 72.5328 408.534ZM72.5328 408.534L72.8626 408.158L72.5328 408.534C72.5328 408.534 72.5328 408.534 72.5328 408.534Z" stroke="#0EE9B4"/>
<path d="M175.117 262.312C175.117 262.771 175.057 263.206 174.938 263.617C174.823 264.023 174.659 264.401 174.445 264.75C174.232 265.099 173.979 265.411 173.688 265.688C173.396 265.964 173.076 266.201 172.727 266.398C172.383 266.591 172.016 266.74 171.625 266.844C171.234 266.948 170.836 267 170.43 267H166.766C166.354 267 165.953 266.948 165.562 266.844C165.172 266.74 164.802 266.591 164.453 266.398C164.109 266.201 163.792 265.964 163.5 265.688C163.208 265.411 162.956 265.099 162.742 264.75C162.534 264.401 162.37 264.023 162.25 263.617C162.135 263.206 162.078 262.771 162.078 262.312V260.484C162.078 259.797 162.206 259.167 162.461 258.594C162.721 258.021 163.068 257.529 163.5 257.117C163.932 256.701 164.43 256.378 164.992 256.148C165.56 255.914 166.151 255.797 166.766 255.797H170.43C170.836 255.797 171.234 255.849 171.625 255.953C172.016 256.057 172.383 256.208 172.727 256.406C173.076 256.599 173.396 256.833 173.688 257.109C173.979 257.385 174.232 257.698 174.445 258.047C174.659 258.396 174.823 258.776 174.938 259.188C175.057 259.594 175.117 260.026 175.117 260.484V262.312ZM173.07 260.484C173.07 260.083 172.997 259.719 172.852 259.391C172.706 259.062 172.51 258.781 172.266 258.547C172.026 258.312 171.747 258.133 171.43 258.008C171.112 257.883 170.779 257.823 170.43 257.828H166.766C166.427 257.823 166.096 257.883 165.773 258.008C165.456 258.128 165.172 258.305 164.922 258.539C164.677 258.768 164.479 259.049 164.328 259.383C164.182 259.711 164.109 260.078 164.109 260.484V262.312C164.109 262.719 164.182 263.086 164.328 263.414C164.474 263.742 164.669 264.023 164.914 264.258C165.159 264.487 165.44 264.664 165.758 264.789C166.081 264.914 166.417 264.974 166.766 264.969H170.43C170.831 264.969 171.193 264.904 171.516 264.773C171.844 264.638 172.122 264.453 172.352 264.219C172.581 263.984 172.758 263.706 172.883 263.383C173.008 263.055 173.07 262.698 173.07 262.312V260.484ZM172.188 259C172.266 259.115 172.318 259.24 172.344 259.375C172.37 259.505 172.37 259.635 172.344 259.766C172.318 259.891 172.266 260.01 172.188 260.125C172.115 260.234 172.018 260.328 171.898 260.406L166.414 264.07C166.326 264.138 166.234 264.185 166.141 264.211C166.047 264.237 165.951 264.25 165.852 264.25C165.685 264.25 165.526 264.211 165.375 264.133C165.224 264.055 165.102 263.943 165.008 263.797C164.93 263.682 164.878 263.56 164.852 263.43C164.826 263.294 164.823 263.164 164.844 263.039C164.87 262.909 164.919 262.789 164.992 262.68C165.065 262.565 165.161 262.469 165.281 262.391L170.781 258.727C170.896 258.648 171.018 258.596 171.148 258.57C171.284 258.544 171.414 258.544 171.539 258.57C171.669 258.596 171.789 258.646 171.898 258.719C172.013 258.792 172.109 258.885 172.188 259ZM189.93 262.312C189.93 262.771 189.87 263.206 189.75 263.617C189.635 264.023 189.471 264.401 189.258 264.75C189.044 265.099 188.792 265.411 188.5 265.688C188.208 265.964 187.888 266.201 187.539 266.398C187.195 266.591 186.828 266.74 186.438 266.844C186.047 266.948 185.648 267 185.242 267H181.578C181.167 267 180.766 266.948 180.375 266.844C179.984 266.74 179.615 266.591 179.266 266.398C178.922 266.201 178.604 265.964 178.312 265.688C178.021 265.411 177.768 265.099 177.555 264.75C177.346 264.401 177.182 264.023 177.062 263.617C176.948 263.206 176.891 262.771 176.891 262.312V260.484C176.891 259.797 177.018 259.167 177.273 258.594C177.534 258.021 177.88 257.529 178.312 257.117C178.745 256.701 179.242 256.378 179.805 256.148C180.372 255.914 180.964 255.797 181.578 255.797H185.242C185.648 255.797 186.047 255.849 186.438 255.953C186.828 256.057 187.195 256.208 187.539 256.406C187.888 256.599 188.208 256.833 188.5 257.109C188.792 257.385 189.044 257.698 189.258 258.047C189.471 258.396 189.635 258.776 189.75 259.188C189.87 259.594 189.93 260.026 189.93 260.484V262.312ZM187.883 260.484C187.883 260.083 187.81 259.719 187.664 259.391C187.518 259.062 187.323 258.781 187.078 258.547C186.839 258.312 186.56 258.133 186.242 258.008C185.924 257.883 185.591 257.823 185.242 257.828H181.578C181.24 257.823 180.909 257.883 180.586 258.008C180.268 258.128 179.984 258.305 179.734 258.539C179.49 258.768 179.292 259.049 179.141 259.383C178.995 259.711 178.922 260.078 178.922 260.484V262.312C178.922 262.719 178.995 263.086 179.141 263.414C179.286 263.742 179.482 264.023 179.727 264.258C179.971 264.487 180.253 264.664 180.57 264.789C180.893 264.914 181.229 264.974 181.578 264.969H185.242C185.643 264.969 186.005 264.904 186.328 264.773C186.656 264.638 186.935 264.453 187.164 264.219C187.393 263.984 187.57 263.706 187.695 263.383C187.82 263.055 187.883 262.698 187.883 262.312V260.484ZM187 259C187.078 259.115 187.13 259.24 187.156 259.375C187.182 259.505 187.182 259.635 187.156 259.766C187.13 259.891 187.078 260.01 187 260.125C186.927 260.234 186.831 260.328 186.711 260.406L181.227 264.07C181.138 264.138 181.047 264.185 180.953 264.211C180.859 264.237 180.763 264.25 180.664 264.25C180.497 264.25 180.339 264.211 180.188 264.133C180.036 264.055 179.914 263.943 179.82 263.797C179.742 263.682 179.69 263.56 179.664 263.43C179.638 263.294 179.635 263.164 179.656 263.039C179.682 262.909 179.732 262.789 179.805 262.68C179.878 262.565 179.974 262.469 180.094 262.391L185.594 258.727C185.708 258.648 185.831 258.596 185.961 258.57C186.096 258.544 186.227 258.544 186.352 258.57C186.482 258.596 186.602 258.646 186.711 258.719C186.826 258.792 186.922 258.885 187 259Z" fill="#0EE9B4"/>
<g filter="url(#filter0_d)">
<path d="M170.516 210V212H172.516V210H170.516ZM108.781 210H106.781V212H108.781V210ZM109.156 183.797L107.201 183.378L107.197 183.396L107.193 183.414L109.156 183.797ZM112.578 176.25L111.004 175.016L110.994 175.03L110.983 175.043L112.578 176.25ZM115.812 173.203L116.959 174.842L116.967 174.836L115.812 173.203ZM156.969 169.031L155.528 167.644L155.527 167.645L156.969 169.031ZM114.266 154.969H112.266V156.969H114.266V154.969ZM114.266 142.781V140.781H112.266V142.781H114.266ZM163.344 145.734L162.17 147.354L162.193 147.37L162.216 147.386L163.344 145.734ZM168.828 152.438L166.997 153.241L167.009 153.269L167.022 153.296L168.828 152.438ZM170.094 156.281L168.129 156.655L168.134 156.683L168.14 156.71L170.094 156.281ZM168.781 173.391L167.013 172.456L167.008 172.465L168.781 173.391ZM164.516 178.688L165.747 180.263L165.756 180.256L165.765 180.249L164.516 178.688ZM158.938 181.641L159.515 183.555L159.525 183.553L159.534 183.55L158.938 181.641ZM122.047 184.078L120.434 182.895L120.408 182.931L120.383 182.969L122.047 184.078ZM120.969 187.453L118.993 187.141L118.969 187.296V187.453H120.969ZM120.969 197.812H118.969V199.812H120.969V197.812ZM170.516 197.812H172.516V195.812H170.516V197.812ZM170.516 208H108.781V212H170.516V208ZM110.781 210V187.453H106.781V210H110.781ZM110.781 187.453C110.781 186.441 110.891 185.351 111.119 184.18L107.193 183.414C106.922 184.805 106.781 186.153 106.781 187.453H110.781ZM111.112 184.216C111.364 183.041 111.743 181.873 112.253 180.71L108.591 179.102C107.976 180.502 107.511 181.928 107.201 183.378L111.112 184.216ZM112.253 180.71C112.751 179.577 113.389 178.493 114.173 177.457L110.983 175.043C110.017 176.319 109.218 177.673 108.591 179.102L112.253 180.71ZM114.152 177.484C114.932 176.489 115.865 175.608 116.959 174.842L114.666 171.565C113.26 172.548 112.037 173.699 111.004 175.016L114.152 177.484ZM116.967 174.836C118.065 174.059 119.347 173.427 120.83 172.951L119.608 169.142C117.778 169.729 116.122 170.534 114.658 171.57L116.967 174.836ZM120.83 172.951C122.253 172.495 123.917 172.25 125.844 172.25V168.25C123.583 168.25 121.497 168.536 119.608 169.142L120.83 172.951ZM125.844 172.25H153.312V168.25H125.844V172.25ZM153.312 172.25C155.257 172.25 157.105 171.775 158.41 170.417L155.527 167.645C155.27 167.913 154.681 168.25 153.312 168.25V172.25ZM158.409 170.419C159.694 169.085 160.188 167.296 160.188 165.375H156.188C156.188 166.642 155.868 167.29 155.528 167.644L158.409 170.419ZM160.188 165.375V159.984H156.188V165.375H160.188ZM160.188 159.984C160.188 158.026 159.707 156.194 158.409 154.847L155.528 157.622C155.856 157.962 156.188 158.63 156.188 159.984H160.188ZM158.409 154.847C157.107 153.494 155.324 152.969 153.406 152.969V156.969C154.614 156.969 155.206 157.287 155.528 157.622L158.409 154.847ZM153.406 152.969H114.266V156.969H153.406V152.969ZM116.266 154.969V142.781H112.266V154.969H116.266ZM114.266 144.781H153.406V140.781H114.266V144.781ZM153.406 144.781C155.299 144.781 156.947 145.025 158.374 145.483L159.595 141.674C157.709 141.069 155.639 140.781 153.406 140.781V144.781ZM158.374 145.483C159.853 145.957 161.111 146.586 162.17 147.354L164.518 144.115C163.076 143.07 161.428 142.262 159.595 141.674L158.374 145.483ZM162.216 147.386C163.337 148.152 164.278 149.029 165.051 150.015L168.199 147.547C167.159 146.221 165.913 145.067 164.472 144.083L162.216 147.386ZM165.051 150.015C165.859 151.046 166.505 152.121 166.997 153.241L170.659 151.634C170.026 150.191 169.204 148.829 168.199 147.547L165.051 150.015ZM167.022 153.296C167.545 154.397 167.912 155.516 168.129 156.655L172.058 155.907C171.775 154.421 171.299 152.978 170.635 151.579L167.022 153.296ZM168.14 156.71C168.396 157.873 168.516 158.931 168.516 159.891H172.516C172.516 158.6 172.354 157.252 172.047 155.852L168.14 156.71ZM168.516 159.891V165.375H172.516V159.891H168.516ZM168.516 165.375C168.516 168.293 167.981 170.625 167.013 172.456L170.549 174.325C171.894 171.781 172.516 168.77 172.516 165.375H168.516ZM167.008 172.465C165.998 174.401 164.746 175.942 163.266 177.126L165.765 180.249C167.722 178.683 169.314 176.692 170.554 174.316L167.008 172.465ZM163.284 177.112C161.747 178.313 160.101 179.182 158.341 179.732L159.534 183.55C161.774 182.85 163.847 181.749 165.747 180.263L163.284 177.112ZM158.36 179.726C156.543 180.274 154.895 180.531 153.406 180.531V184.531C155.355 184.531 157.395 184.195 159.515 183.555L158.36 179.726ZM153.406 180.531H125.844V184.531H153.406V180.531ZM125.844 180.531C124.688 180.531 123.561 180.689 122.597 181.146L124.309 184.761C124.532 184.655 125 184.531 125.844 184.531V180.531ZM122.597 181.146C121.743 181.55 120.999 182.126 120.434 182.895L123.66 185.261C123.783 185.093 123.976 184.918 124.309 184.761L122.597 181.146ZM120.383 182.969C119.937 183.637 119.617 184.375 119.41 185.163L123.278 186.181C123.383 185.782 123.532 185.457 123.711 185.188L120.383 182.969ZM119.41 185.163C119.237 185.82 119.098 186.48 118.993 187.141L122.944 187.765C123.027 187.239 123.138 186.711 123.278 186.181L119.41 185.163ZM118.969 187.453V197.812H122.969V187.453H118.969ZM120.969 199.812H170.516V195.812H120.969V199.812ZM168.516 197.812V210H172.516V197.812H168.516ZM243.406 196.547L241.453 196.118L241.448 196.141L241.443 196.164L243.406 196.547ZM242.141 200.391L240.326 199.55L240.321 199.56L240.317 199.57L242.141 200.391ZM239.938 204L238.363 202.766L238.353 202.78L238.343 202.793L239.938 204ZM236.703 207.094L237.85 208.732L237.858 208.727L236.703 207.094ZM182.094 210H180.094V212H182.094V210ZM182.094 197.812V195.812H180.094V197.812H182.094ZM230.281 196.406L228.795 195.068L228.782 195.082L228.77 195.096L230.281 196.406ZM191.188 180.844L190.242 182.606L190.258 182.614L190.273 182.622L191.188 180.844ZM182.984 170.953L181.067 171.522L181.071 171.536L181.075 171.55L182.984 170.953ZM182.094 142.781V140.781H180.094V142.781H182.094ZM238.25 142.781H240.25V140.781H238.25V142.781ZM238.25 154.969V156.969H240.25V154.969H238.25ZM194.281 154.969V152.969H192.281V154.969H194.281ZM232.297 171.188L231.7 173.096L231.714 173.101L231.728 173.105L232.297 171.188ZM237.828 174.141L236.565 175.691L236.58 175.704L236.596 175.716L237.828 174.141ZM242.094 179.438L240.315 180.352L240.32 180.362L240.326 180.372L242.094 179.438ZM241.828 192.891C241.828 193.885 241.707 194.959 241.453 196.118L245.36 196.976C245.668 195.572 245.828 194.209 245.828 192.891H241.828ZM241.443 196.164C241.227 197.275 240.858 198.403 240.326 199.55L243.955 201.232C244.611 199.816 245.086 198.382 245.369 196.93L241.443 196.164ZM240.317 199.57C239.825 200.663 239.177 201.728 238.363 202.766L241.512 205.234C242.51 203.959 243.331 202.619 243.964 201.211L240.317 199.57ZM238.343 202.793C237.601 203.773 236.676 204.663 235.548 205.461L237.858 208.727C239.293 207.712 240.524 206.54 241.532 205.207L238.343 202.793ZM235.556 205.455C234.492 206.2 233.224 206.82 231.733 207.299L232.955 211.108C234.776 210.523 236.415 209.737 237.85 208.732L235.556 205.455ZM231.733 207.299C230.307 207.756 228.658 208 226.766 208V212C228.998 212 231.068 211.713 232.955 211.108L231.733 207.299ZM226.766 208H182.094V212H226.766V208ZM184.094 210V197.812H180.094V210H184.094ZM182.094 199.812H226.766V195.812H182.094V199.812ZM226.766 199.812C228.729 199.812 230.513 199.192 231.793 197.716L228.77 195.096C228.424 195.495 227.864 195.812 226.766 195.812V199.812ZM231.768 197.744C232.981 196.396 233.547 194.73 233.547 192.891H229.547C229.547 193.864 229.269 194.541 228.795 195.068L231.768 197.744ZM233.547 192.891V187.453H229.547V192.891H233.547ZM233.547 187.453C233.547 185.532 233.053 183.744 231.769 182.41L228.887 185.184C229.228 185.538 229.547 186.186 229.547 187.453H233.547ZM231.769 182.41C230.452 181.042 228.625 180.531 226.672 180.531V184.531C227.969 184.531 228.579 184.864 228.887 185.184L231.769 182.41ZM226.672 180.531H199.203V184.531H226.672V180.531ZM199.203 180.531C196.278 180.531 193.938 180.009 192.102 179.065L190.273 182.622C192.812 183.928 195.816 184.531 199.203 184.531V180.531ZM192.133 179.081C190.191 178.04 188.666 176.774 187.513 175.299L184.362 177.763C185.896 179.726 187.871 181.335 190.242 182.606L192.133 179.081ZM187.513 175.299C186.312 173.763 185.443 172.117 184.893 170.357L181.075 171.55C181.775 173.789 182.876 175.862 184.362 177.763L187.513 175.299ZM184.902 170.384C184.351 168.531 184.094 166.865 184.094 165.375H180.094C180.094 167.322 180.43 169.376 181.067 171.522L184.902 170.384ZM184.094 165.375V142.781H180.094V165.375H184.094ZM182.094 144.781H238.25V140.781H182.094V144.781ZM236.25 142.781V154.969H240.25V142.781H236.25ZM238.25 152.969H194.281V156.969H238.25V152.969ZM192.281 154.969V165.375H196.281V154.969H192.281ZM192.281 165.375C192.281 167.328 192.792 169.155 194.16 170.472L196.934 167.591C196.614 167.282 196.281 166.672 196.281 165.375H192.281ZM194.16 170.472C195.494 171.757 197.282 172.25 199.203 172.25V168.25C197.936 168.25 197.288 167.931 196.934 167.591L194.16 170.472ZM199.203 172.25H226.766V168.25H199.203V172.25ZM226.766 172.25C228.209 172.25 229.849 172.518 231.7 173.096L232.893 169.279C230.745 168.607 228.697 168.25 226.766 168.25V172.25ZM231.728 173.105C233.463 173.62 235.073 174.476 236.565 175.691L239.091 172.59C237.208 171.056 235.13 169.942 232.866 169.27L231.728 173.105ZM236.596 175.716C238.06 176.86 239.306 178.389 240.315 180.352L243.872 178.523C242.632 176.111 241.034 174.108 239.06 172.565L236.596 175.716ZM240.326 180.372C241.293 182.203 241.828 184.535 241.828 187.453H245.828C245.828 184.059 245.207 181.047 243.862 178.503L240.326 180.372ZM241.828 187.453V192.891H245.828V187.453H241.828Z" fill="#0EE9B4"/>
</g>
<g filter="url(#filter1_d)">
<circle cx="176" cy="176" r="142" stroke="#0EE9B4" stroke-width="4"/>
</g>
<defs>
<filter id="filter0_d" x="98.7812" y="132.781" width="155.047" height="87.2188" filterUnits="userSpaceOnUse" color-interpolation-filters="sRGB">
<feFlood flood-opacity="0" result="BackgroundImageFix"/>
<feColorMatrix in="SourceAlpha" type="matrix" values="0 0 0 0 0 0 0 0 0 0 0 0 0 0 0 0 0 0 127 0"/>
<feOffset/>
<feGaussianBlur stdDeviation="4"/>
<feColorMatrix type="matrix" values="0 0 0 0 0.055796 0 0 0 0 0.912664 0 0 0 0 0.707016 0 0 0 0.6 0"/>
<feBlend mode="normal" in2="BackgroundImageFix" result="effect1_dropShadow"/>
<feBlend mode="normal" in="SourceGraphic" in2="effect1_dropShadow" result="shape"/>
</filter>
<filter id="filter1_d" x="24" y="24" width="304" height="304" filterUnits="userSpaceOnUse" color-interpolation-filters="sRGB">
<feFlood flood-opacity="0" result="BackgroundImageFix"/>
<feColorMatrix in="SourceAlpha" type="matrix" values="0 0 0 0 0 0 0 0 0 0 0 0 0 0 0 0 0 0 127 0"/>
<feOffset/>
<feGaussianBlur stdDeviation="4"/>
<feColorMatrix type="matrix" values="0 0 0 0 0.055796 0 0 0 0 0.912664 0 0 0 0 0.707016 0 0 0 0.6 0"/>
<feBlend mode="normal" in2="BackgroundImageFix" result="effect1_dropShadow"/>
<feBlend mode="normal" in="SourceGraphic" in2="effect1_dropShadow" result="shape"/>
</filter>
</defs>
</svg>
