<svg width="22" height="32" viewBox="0 0 22 32" fill="none" xmlns="http://www.w3.org/2000/svg">
    <path d="M0.680196 5.97474L0.269798 5.68913L0.680197 5.97474C1.91658 4.19816 3.30512 2.83594 4.9706 1.9152C6.63412 0.995537 8.60336 0.5 11.0265 0.5C13.5559 0.5 16.1866 1.49024 18.1812 3.13832C20.1737 4.78463 21.4941 7.05318 21.4941 9.59999C21.4941 11.3144 21.0336 12.5815 20.3583 13.5675C19.6773 14.5617 18.7602 15.2962 17.8075 15.9138C17.3412 16.2161 16.8736 16.4859 16.4221 16.7465L16.3922 16.7638C15.937 17.0265 15.4919 17.284 15.1065 17.5467C14.3647 18.0525 13.6649 18.6933 13.6649 19.6392V20C13.6649 20.5523 13.2172 21 12.6649 21H8.13542C7.58313 21 7.13542 20.5523 7.13542 20V19.3883C7.13542 15.9125 9.68061 14.4867 11.9115 13.2369C11.949 13.2159 11.9864 13.195 12.0236 13.1741C12.9614 12.6483 13.7824 12.1731 14.3622 11.635C14.9672 11.0735 15.3412 10.415 15.3412 9.54019C15.3412 8.37471 14.5974 7.46408 13.6841 6.87075C12.767 6.27491 11.5969 5.93825 10.5402 5.93825C9.22968 5.93825 8.22926 6.24401 7.34683 6.83193C6.48417 7.40669 5.7607 8.2352 4.97709 9.21689L5.36786 9.52881L4.97709 9.21689C4.63885 9.64063 4.02388 9.71737 3.59165 9.38964L0.895523 7.34533C0.468118 7.02125 0.372638 6.41667 0.680196 5.97474ZM6.57074 27.6706C6.57074 25.5595 8.28907 23.8412 10.4002 23.8412C12.5113 23.8412 14.2296 25.5595 14.2296 27.6706C14.2296 29.7817 12.5113 31.5 10.4002 31.5C8.28906 31.5 6.57074 29.7817 6.57074 27.6706Z" stroke="#0EE9B4"/>
</svg>
