<svg width="23" height="32" viewBox="0 0 23 32" fill="none" xmlns="http://www.w3.org/2000/svg">
    <path d="M1.28002 5.97474L0.869621 5.68913L1.28002 5.97474C2.5164 4.19816 3.90495 2.83594 5.57043 1.9152C7.23395 0.995537 9.20318 0.5 11.6263 0.5C14.1557 0.5 16.7864 1.49024 18.7811 3.13832C20.7735 4.78463 22.094 7.05318 22.0939 9.59999C22.0939 11.3144 21.6334 12.5815 20.9581 13.5675C20.2772 14.5617 19.36 15.2962 18.4073 15.9138C17.941 16.2161 17.4735 16.4859 17.022 16.7465L16.992 16.7638C16.5368 17.0265 16.0917 17.284 15.7063 17.5467C14.9645 18.0525 14.2647 18.6933 14.2647 19.6392V20C14.2647 20.5523 13.817 21 13.2647 21H8.73525C8.18295 21 7.73525 20.5523 7.73525 20V19.3883C7.73525 15.9125 10.2804 14.4867 12.5113 13.2369C12.5488 13.2159 12.5862 13.195 12.6234 13.1741C13.5612 12.6483 14.3822 12.1731 14.962 11.635C15.567 11.0735 15.941 10.415 15.941 9.54019C15.941 8.37471 15.1972 7.46408 14.2839 6.87075C13.3668 6.27491 12.1967 5.93825 11.14 5.93825C9.8295 5.93825 8.82908 6.24401 7.94666 6.83193C7.08399 7.40669 6.36052 8.2352 5.57691 9.21689L5.96768 9.52881L5.57691 9.21689C5.23867 9.64063 4.62371 9.71737 4.19147 9.38964L1.49535 7.34533C1.06794 7.02125 0.972461 6.41667 1.28002 5.97474ZM7.17056 27.6706C7.17056 25.5595 8.88889 23.8412 11 23.8412C13.1111 23.8412 14.8294 25.5595 14.8294 27.6706C14.8294 29.7817 13.1111 31.5 11 31.5C8.88888 31.5 7.17056 29.7817 7.17056 27.6706Z" stroke="#0EE9B4"/>
</svg>
