<svg width="64" height="64" viewBox="0 0 64 64" fill="none" xmlns="http://www.w3.org/2000/svg">
  <path d="M1.5 32C1.5 15.1511 15.1511 1.5 32 1.5C48.8489 1.5 62.5 15.1511 62.5 32C62.5 48.8489 48.8489 62.5 32 62.5C15.1511 62.5 1.5 48.8489 1.5 32ZM6.5 32C6.5 46.0886 17.9114 57.5 32 57.5C46.0886 57.5 57.5 46.0886 57.5 32C57.5 17.9114 46.0886 6.5 32 6.5C17.9114 6.5 6.5 17.9114 6.5 32ZM43.5 42C43.5 42.8239 42.8239 43.5 42 43.5H36C35.1761 43.5 34.5 42.8239 34.5 42V22C34.5 21.1761 35.1761 20.5 36 20.5H42C42.8239 20.5 43.5 21.1761 43.5 22V42ZM29.5 42C29.5 42.8239 28.8239 43.5 28 43.5H22C21.1761 43.5 20.5 42.8239 20.5 42V22C20.5 21.1761 21.1761 20.5 22 20.5H28C28.8239 20.5 29.5 21.1761 29.5 22V42Z" stroke="#0EE9B4"/>
</svg>
