<svg width="96" height="96" viewBox="0 0 96 96" fill="none" xmlns="http://www.w3.org/2000/svg">
    <path d="M70.1338 44.9434L70.1413 44.9479L70.1489 44.9522C72.9845 46.5429 72.9801 50.6381 70.1509 52.2079L70.1447 52.2115L36.0869 71.7561C36.0858 71.7567 36.0847 71.7573 36.0835 71.7579C33.3351 73.2759 29.9194 71.3026 29.9194 68.129V27.871C29.9194 24.6816 33.3484 22.7263 36.0776 24.2388L70.1338 44.9434ZM48 0.5C74.24 0.5 95.5 21.76 95.5 48C95.5 74.24 74.24 95.5 48 95.5C21.76 95.5 0.5 74.24 0.5 48C0.5 21.76 21.76 0.5 48 0.5ZM48 8.79032C26.3368 8.79032 8.79032 26.3368 8.79032 48C8.79032 69.6632 26.3368 87.2097 48 87.2097C69.6632 87.2097 87.2097 69.6632 87.2097 48C87.2097 26.3368 69.6632 8.79032 48 8.79032Z" stroke="#0EE9B4"/>
</svg>
