<svg width="80" height="80" viewBox="0 0 80 80" fill="none" xmlns="http://www.w3.org/2000/svg">
    <path d="M58.4015 37.524L58.409 37.5286L58.4167 37.5328C60.7232 38.8268 60.7188 42.1575 58.4187 43.4338L58.4187 43.4337L58.4124 43.4373L30.0321 59.7238C30.031 59.7244 30.0299 59.725 30.0289 59.7256C27.7933 60.9599 25.0161 59.3543 25.0161 56.7742V23.2258C25.0161 20.6332 27.8032 19.0424 30.0228 20.2711L58.4015 37.524ZM40 0.5C61.8206 0.5 79.5 18.1794 79.5 40C79.5 61.8206 61.8206 79.5 40 79.5C18.1794 79.5 0.5 61.8206 0.5 40C0.5 18.1794 18.1794 0.5 40 0.5ZM40 7.24194C21.9013 7.24194 7.24194 21.9013 7.24194 40C7.24194 58.0987 21.9013 72.7581 40 72.7581C58.0987 72.7581 72.7581 58.0987 72.7581 40C72.7581 21.9013 58.0987 7.24194 40 7.24194Z" stroke="#0EE9B4"/>
</svg>
