<svg width="64" height="64" viewBox="0 0 64 64" fill="none" xmlns="http://www.w3.org/2000/svg">
    <path d="M46.6693 30.1047L46.6768 30.1092L46.6844 30.1135C48.4619 31.1106 48.4575 33.6768 46.6864 34.6596L46.6864 34.6595L46.6802 34.6631L23.9772 47.6916C23.9762 47.6921 23.9751 47.6927 23.9741 47.6933C22.2514 48.6438 20.1129 47.4059 20.1129 45.4194V18.5806C20.1129 16.5847 22.2582 15.3585 23.9681 16.3034L46.6693 30.1047ZM32 0.5C49.4013 0.5 63.5 14.5987 63.5 32C63.5 49.4013 49.4013 63.5 32 63.5C14.5987 63.5 0.5 49.4013 0.5 32C0.5 14.5987 14.5987 0.5 32 0.5ZM32 5.69355C17.4658 5.69355 5.69355 17.4658 5.69355 32C5.69355 46.5342 17.4658 58.3064 32 58.3064C46.5342 58.3064 58.3064 46.5342 58.3064 32C58.3064 17.4658 46.5342 5.69355 32 5.69355Z" stroke="#0EE9B4"/>
</svg>
