<svg width="32" height="32" viewBox="0 0 32 32" fill="none" xmlns="http://www.w3.org/2000/svg">
    <path d="M8.53281 24.5335C10.6005 26.3478 13.2255 27.3387 16 27.3387C22.3333 27.3387 27.2872 22.2086 27.3383 16.0976C27.3922 9.65318 22.1342 4.60787 15.8996 4.66172C13.0368 4.68641 10.3397 5.76738 8.25697 7.71755L7.87979 8.07072L8.24516 8.43609L10.9387 11.1296C10.9387 11.1296 10.9387 11.1296 10.9387 11.1296C11.5992 11.7901 11.1314 12.9194 10.1974 12.9194H1.54839C0.969368 12.9194 0.5 12.45 0.5 11.871V3.22202C0.5 2.28801 1.62923 1.82023 2.28974 2.48074L4.59387 4.78487L4.93949 5.13049L5.29287 4.79279C8.06972 2.13908 11.8296 0.507463 15.9715 0.500025C24.5215 0.484714 31.5001 7.45028 31.5 16.0001C31.4999 24.5604 24.5604 31.5 16 31.5C12.0043 31.5 8.36284 29.9887 5.61399 27.5059L5.61397 27.5058C5.49423 27.3977 5.49139 27.2157 5.60129 27.1058L8.1601 24.547L7.80768 24.1945L8.16013 24.5469C8.26276 24.4444 8.42601 24.4399 8.53281 24.5335ZM8.53281 24.5335L8.86258 24.1577L8.53284 24.5335C8.53283 24.5335 8.53282 24.5335 8.53281 24.5335Z" stroke="#0EE9B4"/>
</svg>
