<svg width="32" height="32" viewBox="0 0 32 32" fill="none" xmlns="http://www.w3.org/2000/svg">
    <path d="M4.93926 5.14636L5.28489 5.49199L5.63826 5.15428C8.32556 2.58616 11.9641 1.00719 15.9725 0.999994C24.2466 0.985176 31.0001 7.72607 31 16.0001C30.9999 24.2843 24.2842 31 16 31C12.1332 31 8.60922 29.5375 5.94902 27.1347L5.94901 27.1347C5.83957 27.0358 5.83722 26.8698 5.9373 26.7697L8.41614 24.2909C8.50977 24.1973 8.65864 24.1933 8.75589 24.2786C10.7618 26.0387 13.3085 27 16 27C22.1441 27 26.95 22.0231 26.9996 16.0947C27.0519 9.8427 21.9509 4.94815 15.9026 5.00039C13.1253 5.02434 10.5088 6.07304 8.48826 7.96495L8.11108 8.31812L8.47645 8.68349L11.0858 11.2928C11.0858 11.2929 11.0858 11.2929 11.0858 11.2929C11.7158 11.9229 11.2696 13 10.3787 13H2C1.4477 13 1 12.5523 1 12V3.62131C1 2.7304 2.07711 2.28421 2.70713 2.91424L4.93926 5.14636Z" stroke="#0EE9B4"/>
</svg>